<svg width="120" height="120" viewBox="0 0 120 120" fill="none" xmlns="http://www.w3.org/2000/svg">
<rect x="55.3745" y="36.3735" width="10.1674" height="26.4782" rx="1.2" fill="#E05FA0"/>
<rect x="73.6975" y="44.5288" width="10.1674" height="26.4782" rx="1.2" transform="rotate(90 73.6975 44.5288)" fill="#E05FA0"/>
<path d="M56.4263 27.8928V19.5195C44.9105 16.2909 39.6178 16.5303 32.9088 21.7712C24.0976 30.3927 24.0712 37.3061 33.129 53.4762C38.7725 62.1153 42.2998 67.6091 49.5917 79.1995C56.8836 90.7898 58.882 95.7555 58.882 95.7555V82.4798C55.5632 74.6075 52.836 69.9889 47.4123 61.6188C47.4123 61.6188 40.4522 51.4643 36.6805 44.4014C32.9088 37.3385 32.2257 33.2009 36.6805 27.8928C41.3976 23.1766 49.1817 23.8041 56.4263 27.8928Z" fill="#E05FA0"/>
<path d="M57.9581 29.6928V21.3196C61.6905 17.3968 71.8545 15.9894 81.2553 20.1928C94.166 25.9655 99.2487 46.8847 89.4216 62.5992C82.9873 72.8883 80.8522 74.8478 73.0411 84.4688C65.23 94.0898 61.5745 102.736 61.5745 102.736C61.5745 102.736 57.9949 98.2301 61.9023 88.1788C64.0396 82.6809 75.37 70.1394 77.4009 67.0052C77.4009 67.0052 82.1059 61.6069 85.4607 53.2532C88.8155 44.8995 87.3475 35.0009 82.8928 29.6928C78.1756 24.9767 66.972 21.3196 57.9581 29.6928Z" fill="#87247D"/>
<path d="M13.4888 84.0226C13.4888 84.2338 13.3928 84.3682 13.2392 84.5026C12.2216 85.405 10.7816 85.7698 9.4568 85.7698C6.3272 85.7698 4.6952 82.3522 4.6952 79.6066C4.6952 76.3042 6.6344 73.1938 10.2056 73.1938C11.0504 73.1938 11.6456 73.2898 12.4328 73.5202C12.4712 73.5394 12.8744 73.6546 12.8936 73.6738C13.1816 73.789 13.3352 73.9426 13.3352 74.269C13.3352 74.5762 13.124 74.8834 12.7976 74.8834C12.7208 74.8834 12.6632 74.8642 12.5864 74.845C11.684 74.557 11.1848 74.4034 10.2056 74.4034C7.3256 74.4034 5.8856 76.9954 5.8856 79.6066C5.8856 81.661 7.0376 84.5602 9.4568 84.5602C10.7432 84.5602 11.492 84.2722 12.5288 83.5426C12.644 83.4658 12.7592 83.389 12.9128 83.389C13.2392 83.389 13.4888 83.6962 13.4888 84.0226ZM21.0543 78.685C21.0543 79.0114 20.7855 79.2418 20.4783 79.2418C20.2479 79.2418 20.0559 79.0882 19.8255 79.0882C19.4223 79.0882 19.0383 79.1842 18.7311 79.4338C16.8687 80.8738 16.8111 82.8898 16.8111 85.0402C16.8111 85.3858 16.5615 85.6162 16.2159 85.6162C15.8703 85.6162 15.6207 85.3666 15.6207 85.021V78.4738C15.6207 78.0706 15.8319 77.8978 16.2159 77.8978C16.5999 77.8978 16.8111 78.0706 16.8111 78.4738V79.8946C17.4639 78.8386 18.5199 77.9362 19.8255 77.9362C20.2671 77.9362 21.0543 78.109 21.0543 78.685ZM27.9831 81.7762C27.9831 83.677 26.6391 85.5778 24.6231 85.5778C22.6263 85.5778 21.3975 83.6962 21.3975 81.853C21.3975 79.9138 22.6455 77.8978 24.7575 77.8978C26.8311 77.8978 27.9831 79.9138 27.9831 81.7762ZM26.7927 81.7762C26.7927 80.5666 26.1399 79.0498 24.7383 79.0498C23.3175 79.0498 22.5879 80.5858 22.5879 81.8338C22.5879 83.0242 23.2983 84.4258 24.6423 84.4258C26.0055 84.4258 26.7927 82.9858 26.7927 81.7762ZM34.3967 83.485C34.3967 84.733 33.1103 85.5778 31.9583 85.5778C31.3439 85.5778 29.2319 85.4242 29.2319 84.5602C29.2319 84.2338 29.5199 83.9266 29.8463 83.9266C29.9615 83.9266 30.0383 83.9458 30.1343 83.9842C30.6911 84.253 31.3439 84.4258 31.9583 84.4258C32.4575 84.4258 33.2255 84.0802 33.2255 83.485C33.2255 82.0066 29.5391 82.2754 29.5391 79.9906C29.5391 78.7042 30.7487 77.917 31.9391 77.917C32.4767 77.917 34.3007 78.1666 34.3007 78.8962C34.3007 79.2034 34.0127 79.4722 33.6863 79.4722C33.5903 79.4722 33.4943 79.453 33.3983 79.4146C32.9375 79.1842 32.4575 79.0498 31.9391 79.0498C31.4015 79.0498 30.7295 79.3762 30.7295 79.9906C30.7295 81.3346 34.3967 81.1042 34.3967 83.485ZM41.662 83.485C41.662 84.733 40.3756 85.5778 39.2236 85.5778C38.6092 85.5778 36.4972 85.4242 36.4972 84.5602C36.4972 84.2338 36.7852 83.9266 37.1116 83.9266C37.2268 83.9266 37.3036 83.9458 37.3996 83.9842C37.9564 84.253 38.6092 84.4258 39.2236 84.4258C39.7228 84.4258 40.4908 84.0802 40.4908 83.485C40.4908 82.0066 36.8044 82.2754 36.8044 79.9906C36.8044 78.7042 38.014 77.917 39.2044 77.917C39.742 77.917 41.566 78.1666 41.566 78.8962C41.566 79.2034 41.278 79.4722 40.9516 79.4722C40.8556 79.4722 40.7596 79.453 40.6636 79.4146C40.2028 79.1842 39.7228 79.0498 39.2044 79.0498C38.6668 79.0498 37.9948 79.3762 37.9948 79.9906C37.9948 81.3346 41.662 81.1042 41.662 83.485Z" fill="#87247D"/>
<path d="M93.0499 84.0226C93.0499 84.2338 92.9539 84.3682 92.8003 84.5026C91.7827 85.405 90.3427 85.7698 89.0179 85.7698C85.8883 85.7698 84.2563 82.3522 84.2563 79.6066C84.2563 76.3042 86.1955 73.1938 89.7667 73.1938C90.6115 73.1938 91.2067 73.2898 91.9939 73.5202C92.0323 73.5394 92.4355 73.6546 92.4547 73.6738C92.7427 73.789 92.8963 73.9426 92.8963 74.269C92.8963 74.5762 92.6851 74.8834 92.3587 74.8834C92.2819 74.8834 92.2243 74.8642 92.1475 74.845C91.2451 74.557 90.7459 74.4034 89.7667 74.4034C86.8867 74.4034 85.4467 76.9954 85.4467 79.6066C85.4467 81.661 86.5987 84.5602 89.0179 84.5602C90.3043 84.5602 91.0531 84.2722 92.0899 83.5426C92.2051 83.4658 92.3203 83.389 92.4739 83.389C92.8003 83.389 93.0499 83.6962 93.0499 84.0226ZM101.403 85.0594C101.403 85.405 101.134 85.597 100.807 85.597C100.5 85.597 100.212 85.405 100.212 85.0594V83.7538C99.5211 84.7522 98.4459 85.5778 97.1979 85.5778C95.5083 85.5778 94.8939 83.8114 94.8939 82.3906C94.8939 79.8754 96.4491 77.917 99.0603 77.917C99.6555 77.917 100.347 77.9362 100.923 78.109C101.191 78.1858 101.383 78.3394 101.383 78.6466C101.383 78.973 101.153 79.2226 100.827 79.2226C100.769 79.2226 100.731 79.2226 100.673 79.2034C100.135 79.1074 99.6171 79.069 99.0603 79.069C97.1019 79.069 96.0843 80.5474 96.0843 82.3906C96.0843 83.1202 96.3147 84.4258 97.2555 84.4258C97.6587 84.4258 98.0235 84.2338 98.3307 84.0034C99.8091 82.9282 100.212 81.6994 100.212 79.933C100.212 79.6066 100.539 79.453 100.827 79.453C101.115 79.453 101.403 79.6258 101.403 79.9522V85.0594ZM110.074 78.685C110.074 79.0114 109.806 79.2418 109.498 79.2418C109.268 79.2418 109.076 79.0882 108.846 79.0882C108.442 79.0882 108.058 79.1842 107.751 79.4338C105.889 80.8738 105.831 82.8898 105.831 85.0402C105.831 85.3858 105.582 85.6162 105.236 85.6162C104.89 85.6162 104.641 85.3666 104.641 85.021V78.4738C104.641 78.0706 104.852 77.8978 105.236 77.8978C105.62 77.8978 105.831 78.0706 105.831 78.4738V79.8946C106.484 78.8386 107.54 77.9362 108.846 77.9362C109.287 77.9362 110.074 78.109 110.074 78.685ZM116.293 84.1378C116.293 84.3106 116.216 84.4642 116.082 84.5986C115.506 85.309 114.526 85.5778 113.643 85.5778C111.608 85.5778 110.418 83.8882 110.418 81.9682C110.418 79.8946 111.819 77.8978 114.046 77.8978C115.16 77.8978 115.986 78.5506 115.986 79.7026C115.986 81.565 114.046 82.237 112.491 82.237C112.146 82.237 111.896 82.0066 111.896 81.6418C111.896 81.3154 112.146 81.085 112.472 81.085C113.355 81.085 114.795 80.8546 114.795 79.7026C114.795 79.2034 114.507 79.0498 114.046 79.0498C112.472 79.0498 111.608 80.5666 111.608 81.9682C111.608 83.2354 112.261 84.4258 113.643 84.4258C114.296 84.4258 114.814 84.253 115.294 83.8114C115.429 83.677 115.544 83.5618 115.755 83.5618C116.062 83.5618 116.293 83.8306 116.293 84.1378Z" fill="#E05FA0"/>
</svg>
